<?xml version="1.0" encoding="UTF-8"?>
<svg version="1.1" xmlns="http://www.w3.org/2000/svg" width="512" height="512">
<path d="M0 0 C1.27196104 -0.00644889 2.54392208 -0.01289778 3.8544274 -0.0195421 C5.26364148 -0.01659991 6.67285517 -0.01346449 8.08206844 -0.01015663 C9.58083781 -0.01389312 11.07960523 -0.01849464 12.57836956 -0.02388728 C16.69814398 -0.03613235 20.81783729 -0.03585505 24.93762577 -0.03349853 C29.38006811 -0.03309075 33.82248432 -0.04412553 38.26491451 -0.05361366 C46.96786145 -0.07023158 55.67078129 -0.07572352 64.37374277 -0.07683842 C71.44500883 -0.07778827 78.51626595 -0.0818954 85.58752918 -0.08823967 C105.62525314 -0.1058522 125.66295566 -0.11507822 145.70068742 -0.11357872 C146.7810889 -0.11349881 147.86149039 -0.1134189 148.97463131 -0.11333656 C150.05634772 -0.1132548 151.13806414 -0.11317304 152.25255983 -0.1130888 C169.79649608 -0.11227531 187.3403466 -0.13142877 204.88425804 -0.1596133 C222.88779934 -0.1883087 240.89129878 -0.20215552 258.89486355 -0.20042574 C269.00681742 -0.19976081 279.11868135 -0.20529855 289.23061466 -0.22678185 C297.83712417 -0.24494944 306.44350294 -0.24937732 315.05002327 -0.235763 C319.4434482 -0.22921163 323.836622 -0.22919394 328.23002338 -0.2464695 C332.24868952 -0.26210956 336.26690349 -0.25943047 340.28555798 -0.24190123 C341.74240338 -0.23881125 343.19928178 -0.24253828 344.6560883 -0.25362138 C346.63051328 -0.2676524 348.60507529 -0.25481548 350.57949829 -0.24050903 C351.67797689 -0.24094377 352.77645548 -0.24137851 353.9082213 -0.24182642 C357.42487093 0.38087239 358.61981522 1.41170164 360.72682858 4.25726891 C360.97682858 8.00726891 360.97682858 8.00726891 360.72682858 11.25726891 C362.03345455 11.66827843 362.03345455 11.66827843 363.36647701 12.08759117 C368.79885986 13.9785056 373.83740176 16.62810742 378.97682858 19.19476891 C380.07768795 19.7329525 381.17854733 20.27113609 382.31276608 20.82562828 C383.36206295 21.34834312 384.41135983 21.87105797 385.49245358 22.40961266 C386.44926022 22.88390709 387.40606686 23.35820152 388.39186764 23.84686852 C390.72682858 25.25726891 390.72682858 25.25726891 392.72682858 28.25726891 C392.93186643 31.07467347 393.02052616 33.79404593 393.01735592 36.61249352 C393.02407314 37.46482063 393.03079037 38.31714775 393.03771114 39.19530296 C393.05673118 42.01679859 393.06061723 44.83805689 393.06276608 47.65961266 C393.06919078 49.61872519 393.07591889 51.57783675 393.08293819 53.53694725 C393.09492067 57.64515979 393.09861798 61.75328817 393.09743404 65.86151695 C393.0972307 71.12885148 393.12454459 76.3956474 393.15897846 81.66285419 C393.18120138 85.70944771 393.18527302 89.7559106 393.18421459 93.8025589 C393.18657705 95.74465925 393.19543672 97.68676286 393.21087933 99.62880325 C393.23044804 102.34380411 393.22473766 105.0576305 393.21266842 107.77264977 C393.22390743 108.57642052 393.23514645 109.38019127 393.24672604 110.20831871 C393.20687684 113.731098 393.06135169 115.81401161 390.90788937 118.66744041 C387.97349226 120.80639415 384.86366809 122.44024085 381.60182858 124.00726891 C380.96889889 124.32308922 380.3359692 124.63890953 379.68385983 124.96430016 C375.00858588 127.25726891 375.00858588 127.25726891 372.72682858 127.25726891 C372.72682858 127.91726891 372.72682858 128.57726891 372.72682858 129.25726891 C373.57632076 129.51508141 374.42581295 129.77289391 375.30104733 130.03851891 C378.92632375 131.32824096 382.15421085 132.93123969 385.53932858 134.75726891 C386.68014889 135.36570641 387.8209692 135.97414391 388.99635983 136.60101891 C391.72682858 138.25726891 391.72682858 138.25726891 392.72682858 140.25726891 C392.84090706 143.01244461 392.89467457 145.7429224 392.90383053 148.49896812 C392.91040173 149.35114922 392.91697292 150.20333031 392.92374325 151.08133507 C392.94349339 153.90820968 392.95514169 156.73503117 392.96510983 159.56195641 C392.96918535 160.52599514 392.97326088 161.49003387 392.97745991 162.4832859 C392.99832642 167.58421427 393.0126265 172.68511567 393.02199459 177.7860775 C393.03306964 183.0612555 393.06748051 188.33601291 393.10716629 193.61104202 C393.13327681 197.6619096 393.14168139 201.71267604 393.14527607 205.76362038 C393.15015523 207.70852186 393.16180684 209.65341844 393.18031406 211.59823799 C393.20459089 214.31809421 393.2037618 217.03684986 393.19679928 219.75678062 C393.21601437 220.96479332 393.21601437 220.96479332 393.23561764 222.19721031 C393.20265443 225.72458411 393.06407925 227.80996968 390.90888119 230.66843224 C387.97349939 232.80579695 384.86361262 234.4402675 381.60182858 236.00726891 C380.65243404 236.48099937 380.65243404 236.48099937 379.68385983 236.96430016 C375.00858588 239.25726891 375.00858588 239.25726891 372.72682858 239.25726891 C372.72682858 239.91726891 372.72682858 240.57726891 372.72682858 241.25726891 C373.57632076 241.51508141 374.42581295 241.77289391 375.30104733 242.03851891 C378.92632375 243.32824096 382.15421085 244.93123969 385.53932858 246.75726891 C386.68014889 247.36570641 387.8209692 247.97414391 388.99635983 248.60101891 C391.72682858 250.25726891 391.72682858 250.25726891 392.72682858 252.25726891 C392.84090706 255.01244461 392.89467457 257.7429224 392.90383053 260.49896812 C392.91040173 261.35114922 392.91697292 262.20333031 392.92374325 263.08133507 C392.94349339 265.90820968 392.95514169 268.73503117 392.96510983 271.56195641 C392.96918535 272.52599514 392.97326088 273.49003387 392.97745991 274.4832859 C392.99832642 279.58421427 393.0126265 284.68511567 393.02199459 289.7860775 C393.03306964 295.0612555 393.06748051 300.33601291 393.10716629 305.61104202 C393.13327681 309.6619096 393.14168139 313.71267604 393.14527607 317.76362038 C393.15015523 319.70852186 393.16180684 321.65341844 393.18031406 323.59823799 C393.20459089 326.31809421 393.2037618 329.03684986 393.19679928 331.75678062 C393.21601437 332.96479332 393.21601437 332.96479332 393.23561764 334.19721031 C393.20265443 337.72458411 393.06407925 339.80996968 390.90888119 342.66843224 C387.97349939 344.80579695 384.86361262 346.4402675 381.60182858 348.00726891 C380.96889889 348.32308922 380.3359692 348.63890953 379.68385983 348.96430016 C375.00858588 351.25726891 375.00858588 351.25726891 372.72682858 351.25726891 C372.72682858 351.91726891 372.72682858 352.57726891 372.72682858 353.25726891 C373.57632076 353.51508141 374.42581295 353.77289391 375.30104733 354.03851891 C378.92632375 355.32824096 382.15421085 356.93123969 385.53932858 358.75726891 C386.68014889 359.36570641 387.8209692 359.97414391 388.99635983 360.60101891 C391.72682858 362.25726891 391.72682858 362.25726891 392.72682858 364.25726891 C392.84090706 367.01244461 392.89467457 369.7429224 392.90383053 372.49896812 C392.91040173 373.35114922 392.91697292 374.20333031 392.92374325 375.08133507 C392.94349339 377.90820968 392.95514169 380.73503117 392.96510983 383.56195641 C392.96918535 384.52599514 392.97326088 385.49003387 392.97745991 386.4832859 C392.99832642 391.58421427 393.0126265 396.68511567 393.02199459 401.7860775 C393.03306964 407.0612555 393.06748051 412.33601291 393.10716629 417.61104202 C393.13327681 421.6619096 393.14168139 425.71267604 393.14527607 429.76362038 C393.15015523 431.70852186 393.16180684 433.65341844 393.18031406 435.59823799 C393.20459089 438.31809421 393.2037618 441.03684986 393.19679928 443.75678062 C393.21601437 444.96479332 393.21601437 444.96479332 393.23561764 446.19721031 C393.20237986 449.75396548 393.0640403 451.81555266 390.87302303 454.68558311 C388.26266157 456.59718437 385.61878225 458.05304826 382.71901608 459.49164391 C381.56788326 460.06527672 380.41675045 460.63890953 379.23073483 461.22992516 C378.33765621 461.66715904 378.33765621 461.66715904 377.42653561 462.11322594 C375.59611657 463.01006759 373.77251206 463.91972908 371.94948483 464.83148766 C363.00760026 469.25726891 363.00760026 469.25726891 360.72682858 469.25726891 C360.80932858 470.32976891 360.89182858 471.40226891 360.97682858 472.50726891 C360.72682858 476.25726891 360.72682858 476.25726891 359.09488797 478.46018362 C356.06187734 480.76189057 354.37374209 480.75839199 350.58787823 480.76063347 C348.68662343 480.77627995 348.68662343 480.77627995 346.74695945 480.79224253 C345.33755726 480.78359395 343.92815735 480.7745673 342.51875973 480.76520348 C341.02370033 480.76981084 339.52864545 480.77616266 338.03360009 480.78411245 C333.91918837 480.80085246 329.80514647 480.79253831 325.69073319 480.78016758 C321.25568206 480.7711381 316.82069569 480.78507655 312.38565731 480.79608727 C303.69389121 480.81390137 295.00226305 480.81001915 286.31049147 480.7984367 C279.24590254 480.78941168 272.18135234 480.78817435 265.1167593 480.79253197 C264.11215491 480.7931449 263.10755053 480.79375783 262.07250358 480.79438934 C260.03176456 480.79566822 257.99102554 480.79696507 255.95028654 480.7982797 C236.79940441 480.80969457 217.64859879 480.79655881 198.49772921 480.77507824 C182.06543099 480.75721733 165.63324583 480.7603013 149.20094967 480.77875328 C130.12588681 480.80016278 111.05089112 480.80858436 91.97581792 480.79630423 C89.94126559 480.79503002 87.90671326 480.79377254 85.87216091 480.79253197 C84.87109453 480.79191487 83.87002815 480.79129776 82.83862643 480.79066196 C75.78457722 480.78720849 68.73057059 480.79303759 61.67652798 480.80245018 C53.07668193 480.81367289 44.47698192 480.81062482 35.87715259 480.7893272 C31.48932462 480.77881879 27.10174005 480.77469123 22.71391392 480.78792381 C18.69559963 480.79985859 14.67775392 480.79326746 10.65948203 480.7720136 C9.20725284 480.76755198 7.75498392 480.769804 6.30278036 480.77951676 C-2.82308218 480.83586197 -9.42009781 480.51004944 -16.51535892 474.29242516 C-17.05418705 473.64144859 -17.59301517 472.99047203 -18.14817142 472.31976891 C-18.7024683 471.67137047 -19.25676517 471.02297203 -19.82785892 470.35492516 C-23.50123792 465.02356158 -23.54460956 460.28115656 -23.46848392 454.01898766 C-23.46565403 453.1382206 -23.46282413 452.25745354 -23.45990849 451.34999657 C-23.44874975 448.54811346 -23.42365313 445.74655475 -23.39817142 442.94476891 C-23.38813606 441.04047666 -23.37901118 439.13617938 -23.37082767 437.23187828 C-23.34882452 432.57355093 -23.31432436 427.91546485 -23.27317142 423.25726891 C-24.22167973 422.95780357 -25.17018803 422.65833824 -26.147439 422.3497982 C-31.80873411 420.37102014 -35.06848965 416.16144332 -38.21067142 411.19476891 C-40.63984057 404.48418913 -40.64908628 395.36407293 -37.77317142 388.81976891 C-34.40152353 383.23246667 -29.59564409 378.83788707 -23.27317142 377.25726891 C-23.27317142 366.03726891 -23.27317142 354.81726891 -23.27317142 343.25726891 C-25.25317142 342.59726891 -27.23317142 341.93726891 -29.27317142 341.25726891 C-34.00374621 337.77593328 -38.11246686 333.12297235 -39.27317142 327.25726891 C-40.02622461 319.36903679 -40.44219037 311.68982581 -35.27317142 305.25726891 C-31.5050906 301.30387263 -28.63979764 298.59892546 -23.27317142 297.25726891 C-23.27317142 286.03726891 -23.27317142 274.81726891 -23.27317142 263.25726891 C-25.25317142 262.59726891 -27.23317142 261.93726891 -29.27317142 261.25726891 C-34.00374621 257.77593328 -38.11246686 253.12297235 -39.27317142 247.25726891 C-40.02622461 239.36903679 -40.44219037 231.68982581 -35.27317142 225.25726891 C-31.5050906 221.30387263 -28.63979764 218.59892546 -23.27317142 217.25726891 C-23.27317142 206.03726891 -23.27317142 194.81726891 -23.27317142 183.25726891 C-25.25317142 182.59726891 -27.23317142 181.93726891 -29.27317142 181.25726891 C-34.00374621 177.77593328 -38.11246686 173.12297235 -39.27317142 167.25726891 C-40.02622461 159.36903679 -40.44219037 151.68982581 -35.27317142 145.25726891 C-31.5050906 141.30387263 -28.63979764 138.59892546 -23.27317142 137.25726891 C-23.27317142 126.03726891 -23.27317142 114.81726891 -23.27317142 103.25726891 C-25.25317142 102.59726891 -27.23317142 101.93726891 -29.27317142 101.25726891 C-34.00374621 97.77593328 -38.11246686 93.12297235 -39.27317142 87.25726891 C-40.02622461 79.36903679 -40.44219037 71.68982581 -35.27317142 65.25726891 C-31.60215717 61.40571296 -28.53117294 58.42320336 -23.27317142 57.25726891 C-23.29411869 56.08744469 -23.31506596 54.91762047 -23.33664799 53.71234703 C-23.40941999 49.34398351 -23.45510565 44.97567285 -23.49289799 40.60687828 C-23.51292909 38.72136974 -23.54016215 36.83592267 -23.57492924 34.95062828 C-23.62382415 32.22977028 -23.64622524 29.50973834 -23.66379642 26.78851891 C-23.68444157 25.95485802 -23.70508671 25.12119713 -23.72635746 24.26227379 C-23.72895116 17.39243696 -21.85876443 12.20782633 -17.30832767 7.01508141 C-16.65735111 6.47625328 -16.00637455 5.93742516 -15.33567142 5.38226891 C-14.68727299 4.82797203 -14.03887455 4.27367516 -13.37082767 3.70258141 C-9.00808255 0.69659314 -5.25098761 0.00673364 0 0 Z " fill="#FAE8D7" transform="translate(79.27317142486572,15.742731094360352)"/>
<path d="M0 0 C1.27196104 -0.00644889 2.54392208 -0.01289778 3.8544274 -0.0195421 C5.26364148 -0.01659991 6.67285517 -0.01346449 8.08206844 -0.01015663 C9.58083781 -0.01389312 11.07960523 -0.01849464 12.57836956 -0.02388728 C16.69814398 -0.03613235 20.81783729 -0.03585505 24.93762577 -0.03349853 C29.38006811 -0.03309075 33.82248432 -0.04412553 38.26491451 -0.05361366 C46.96786145 -0.07023158 55.67078129 -0.07572352 64.37374277 -0.07683842 C71.44500883 -0.07778827 78.51626595 -0.0818954 85.58752918 -0.08823967 C105.62525314 -0.1058522 125.66295566 -0.11507822 145.70068742 -0.11357872 C146.7810889 -0.11349881 147.86149039 -0.1134189 148.97463131 -0.11333656 C150.05634772 -0.1132548 151.13806414 -0.11317304 152.25255983 -0.1130888 C169.79649608 -0.11227531 187.3403466 -0.13142877 204.88425804 -0.1596133 C222.88779934 -0.1883087 240.89129878 -0.20215552 258.89486355 -0.20042574 C269.00681742 -0.19976081 279.11868135 -0.20529855 289.23061466 -0.22678185 C297.83712417 -0.24494944 306.44350294 -0.24937732 315.05002327 -0.235763 C319.4434482 -0.22921163 323.836622 -0.22919394 328.23002338 -0.2464695 C332.24868952 -0.26210956 336.26690349 -0.25943047 340.28555798 -0.24190123 C341.74240338 -0.23881125 343.19928178 -0.24253828 344.6560883 -0.25362138 C346.63051328 -0.2676524 348.60507529 -0.25481548 350.57949829 -0.24050903 C351.67797689 -0.24094377 352.77645548 -0.24137851 353.9082213 -0.24182642 C357.42487093 0.38087239 358.61981522 1.41170164 360.72682858 4.25726891 C360.97682858 8.00726891 360.97682858 8.00726891 360.72682858 11.25726891 C362.03345455 11.66827843 362.03345455 11.66827843 363.36647701 12.08759117 C368.79885986 13.9785056 373.83740176 16.62810742 378.97682858 19.19476891 C380.07768795 19.7329525 381.17854733 20.27113609 382.31276608 20.82562828 C383.36206295 21.34834312 384.41135983 21.87105797 385.49245358 22.40961266 C386.44926022 22.88390709 387.40606686 23.35820152 388.39186764 23.84686852 C390.72682858 25.25726891 390.72682858 25.25726891 392.72682858 28.25726891 C392.93186643 31.07467347 393.02052616 33.79404593 393.01735592 36.61249352 C393.02407314 37.46482063 393.03079037 38.31714775 393.03771114 39.19530296 C393.05673118 42.01679859 393.06061723 44.83805689 393.06276608 47.65961266 C393.06919078 49.61872519 393.07591889 51.57783675 393.08293819 53.53694725 C393.09492067 57.64515979 393.09861798 61.75328817 393.09743404 65.86151695 C393.0972307 71.12885148 393.12454459 76.3956474 393.15897846 81.66285419 C393.18120138 85.70944771 393.18527302 89.7559106 393.18421459 93.8025589 C393.18657705 95.74465925 393.19543672 97.68676286 393.21087933 99.62880325 C393.23044804 102.34380411 393.22473766 105.0576305 393.21266842 107.77264977 C393.22390743 108.57642052 393.23514645 109.38019127 393.24672604 110.20831871 C393.20687684 113.731098 393.06135169 115.81401161 390.90788937 118.66744041 C387.97349226 120.80639415 384.86366809 122.44024085 381.60182858 124.00726891 C380.96889889 124.32308922 380.3359692 124.63890953 379.68385983 124.96430016 C375.00858588 127.25726891 375.00858588 127.25726891 372.72682858 127.25726891 C372.72682858 127.91726891 372.72682858 128.57726891 372.72682858 129.25726891 C373.57632076 129.51508141 374.42581295 129.77289391 375.30104733 130.03851891 C378.92632375 131.32824096 382.15421085 132.93123969 385.53932858 134.75726891 C386.68014889 135.36570641 387.8209692 135.97414391 388.99635983 136.60101891 C391.72682858 138.25726891 391.72682858 138.25726891 392.72682858 140.25726891 C392.84090706 143.01244461 392.89467457 145.7429224 392.90383053 148.49896812 C392.91040173 149.35114922 392.91697292 150.20333031 392.92374325 151.08133507 C392.94349339 153.90820968 392.95514169 156.73503117 392.96510983 159.56195641 C392.96918535 160.52599514 392.97326088 161.49003387 392.97745991 162.4832859 C392.99832642 167.58421427 393.0126265 172.68511567 393.02199459 177.7860775 C393.03306964 183.0612555 393.06748051 188.33601291 393.10716629 193.61104202 C393.13327681 197.6619096 393.14168139 201.71267604 393.14527607 205.76362038 C393.15015523 207.70852186 393.16180684 209.65341844 393.18031406 211.59823799 C393.20459089 214.31809421 393.2037618 217.03684986 393.19679928 219.75678062 C393.21601437 220.96479332 393.21601437 220.96479332 393.23561764 222.19721031 C393.20265443 225.72458411 393.06407925 227.80996968 390.90888119 230.66843224 C387.97349939 232.80579695 384.86361262 234.4402675 381.60182858 236.00726891 C380.65243404 236.48099937 380.65243404 236.48099937 379.68385983 236.96430016 C375.00858588 239.25726891 375.00858588 239.25726891 372.72682858 239.25726891 C372.72682858 239.91726891 372.72682858 240.57726891 372.72682858 241.25726891 C373.57632076 241.51508141 374.42581295 241.77289391 375.30104733 242.03851891 C378.92632375 243.32824096 382.15421085 244.93123969 385.53932858 246.75726891 C386.68014889 247.36570641 387.8209692 247.97414391 388.99635983 248.60101891 C391.72682858 250.25726891 391.72682858 250.25726891 392.72682858 252.25726891 C392.84090706 255.01244461 392.89467457 257.7429224 392.90383053 260.49896812 C392.91040173 261.35114922 392.91697292 262.20333031 392.92374325 263.08133507 C392.94349339 265.90820968 392.95514169 268.73503117 392.96510983 271.56195641 C392.96918535 272.52599514 392.97326088 273.49003387 392.97745991 274.4832859 C392.99832642 279.58421427 393.0126265 284.68511567 393.02199459 289.7860775 C393.03306964 295.0612555 393.06748051 300.33601291 393.10716629 305.61104202 C393.13327681 309.6619096 393.14168139 313.71267604 393.14527607 317.76362038 C393.15015523 319.70852186 393.16180684 321.65341844 393.18031406 323.59823799 C393.20459089 326.31809421 393.2037618 329.03684986 393.19679928 331.75678062 C393.21601437 332.96479332 393.21601437 332.96479332 393.23561764 334.19721031 C393.20265443 337.72458411 393.06407925 339.80996968 390.90888119 342.66843224 C387.97349939 344.80579695 384.86361262 346.4402675 381.60182858 348.00726891 C380.96889889 348.32308922 380.3359692 348.63890953 379.68385983 348.96430016 C375.00858588 351.25726891 375.00858588 351.25726891 372.72682858 351.25726891 C372.72682858 351.91726891 372.72682858 352.57726891 372.72682858 353.25726891 C373.57632076 353.51508141 374.42581295 353.77289391 375.30104733 354.03851891 C378.92632375 355.32824096 382.15421085 356.93123969 385.53932858 358.75726891 C386.68014889 359.36570641 387.8209692 359.97414391 388.99635983 360.60101891 C391.72682858 362.25726891 391.72682858 362.25726891 392.72682858 364.25726891 C392.84090706 367.01244461 392.89467457 369.7429224 392.90383053 372.49896812 C392.91040173 373.35114922 392.91697292 374.20333031 392.92374325 375.08133507 C392.94349339 377.90820968 392.95514169 380.73503117 392.96510983 383.56195641 C392.96918535 384.52599514 392.97326088 385.49003387 392.97745991 386.4832859 C392.99832642 391.58421427 393.0126265 396.68511567 393.02199459 401.7860775 C393.03306964 407.0612555 393.06748051 412.33601291 393.10716629 417.61104202 C393.13327681 421.6619096 393.14168139 425.71267604 393.14527607 429.76362038 C393.15015523 431.70852186 393.16180684 433.65341844 393.18031406 435.59823799 C393.20459089 438.31809421 393.2037618 441.03684986 393.19679928 443.75678062 C393.21601437 444.96479332 393.21601437 444.96479332 393.23561764 446.19721031 C393.20237986 449.75396548 393.0640403 451.81555266 390.87302303 454.68558311 C388.26266157 456.59718437 385.61878225 458.05304826 382.71901608 459.49164391 C381.56788326 460.06527672 380.41675045 460.63890953 379.23073483 461.22992516 C378.33765621 461.66715904 378.33765621 461.66715904 377.42653561 462.11322594 C375.59611657 463.01006759 373.77251206 463.91972908 371.94948483 464.83148766 C363.00760026 469.25726891 363.00760026 469.25726891 360.72682858 469.25726891 C360.80932858 470.32976891 360.89182858 471.40226891 360.97682858 472.50726891 C360.72682858 476.25726891 360.72682858 476.25726891 359.09488797 478.46018362 C356.06187734 480.76189057 354.37374209 480.75839199 350.58787823 480.76063347 C348.68662343 480.77627995 348.68662343 480.77627995 346.74695945 480.79224253 C345.33755726 480.78359395 343.92815735 480.7745673 342.51875973 480.76520348 C341.02370033 480.76981084 339.52864545 480.77616266 338.03360009 480.78411245 C333.91918837 480.80085246 329.80514647 480.79253831 325.69073319 480.78016758 C321.25568206 480.7711381 316.82069569 480.78507655 312.38565731 480.79608727 C303.69389121 480.81390137 295.00226305 480.81001915 286.31049147 480.7984367 C279.24590254 480.78941168 272.18135234 480.78817435 265.1167593 480.79253197 C264.11215491 480.7931449 263.10755053 480.79375783 262.07250358 480.79438934 C260.03176456 480.79566822 257.99102554 480.79696507 255.95028654 480.7982797 C236.79940441 480.80969457 217.64859879 480.79655881 198.49772921 480.77507824 C182.06543099 480.75721733 165.63324583 480.7603013 149.20094967 480.77875328 C130.12588681 480.80016278 111.05089112 480.80858436 91.97581792 480.79630423 C89.94126559 480.79503002 87.90671326 480.79377254 85.87216091 480.79253197 C84.87109453 480.79191487 83.87002815 480.79129776 82.83862643 480.79066196 C75.78457722 480.78720849 68.73057059 480.79303759 61.67652798 480.80245018 C53.07668193 480.81367289 44.47698192 480.81062482 35.87715259 480.7893272 C31.48932462 480.77881879 27.10174005 480.77469123 22.71391392 480.78792381 C18.69559963 480.79985859 14.67775392 480.79326746 10.65948203 480.7720136 C9.20725284 480.76755198 7.75498392 480.769804 6.30278036 480.77951676 C-2.82308218 480.83586197 -9.42009781 480.51004944 -16.51535892 474.29242516 C-17.05418705 473.64144859 -17.59301517 472.99047203 -18.14817142 472.31976891 C-18.7024683 471.67137047 -19.25676517 471.02297203 -19.82785892 470.35492516 C-23.50123792 465.02356158 -23.54460956 460.28115656 -23.46848392 454.01898766 C-23.46565403 453.1382206 -23.46282413 452.25745354 -23.45990849 451.34999657 C-23.44874975 448.54811346 -23.42365313 445.74655475 -23.39817142 442.94476891 C-23.38813606 441.04047666 -23.37901118 439.13617938 -23.37082767 437.23187828 C-23.34882452 432.57355093 -23.31432436 427.91546485 -23.27317142 423.25726891 C-24.22167973 422.95780357 -25.17018803 422.65833824 -26.147439 422.3497982 C-31.80873411 420.37102014 -35.06848965 416.16144332 -38.21067142 411.19476891 C-40.63984057 404.48418913 -40.64908628 395.36407293 -37.77317142 388.81976891 C-34.40152353 383.23246667 -29.59564409 378.83788707 -23.27317142 377.25726891 C-23.27317142 366.03726891 -23.27317142 354.81726891 -23.27317142 343.25726891 C-25.25317142 342.59726891 -27.23317142 341.93726891 -29.27317142 341.25726891 C-34.00374621 337.77593328 -38.11246686 333.12297235 -39.27317142 327.25726891 C-40.02622461 319.36903679 -40.44219037 311.68982581 -35.27317142 305.25726891 C-31.5050906 301.30387263 -28.63979764 298.59892546 -23.27317142 297.25726891 C-23.27317142 286.03726891 -23.27317142 274.81726891 -23.27317142 263.25726891 C-25.25317142 262.59726891 -27.23317142 261.93726891 -29.27317142 261.25726891 C-34.00374621 257.77593328 -38.11246686 253.12297235 -39.27317142 247.25726891 C-40.02622461 239.36903679 -40.44219037 231.68982581 -35.27317142 225.25726891 C-31.5050906 221.30387263 -28.63979764 218.59892546 -23.27317142 217.25726891 C-23.27317142 206.03726891 -23.27317142 194.81726891 -23.27317142 183.25726891 C-25.25317142 182.59726891 -27.23317142 181.93726891 -29.27317142 181.25726891 C-34.00374621 177.77593328 -38.11246686 173.12297235 -39.27317142 167.25726891 C-40.02622461 159.36903679 -40.44219037 151.68982581 -35.27317142 145.25726891 C-31.5050906 141.30387263 -28.63979764 138.59892546 -23.27317142 137.25726891 C-23.27317142 126.03726891 -23.27317142 114.81726891 -23.27317142 103.25726891 C-25.25317142 102.59726891 -27.23317142 101.93726891 -29.27317142 101.25726891 C-34.00374621 97.77593328 -38.11246686 93.12297235 -39.27317142 87.25726891 C-40.02622461 79.36903679 -40.44219037 71.68982581 -35.27317142 65.25726891 C-31.60215717 61.40571296 -28.53117294 58.42320336 -23.27317142 57.25726891 C-23.29411869 56.08744469 -23.31506596 54.91762047 -23.33664799 53.71234703 C-23.40941999 49.34398351 -23.45510565 44.97567285 -23.49289799 40.60687828 C-23.51292909 38.72136974 -23.54016215 36.83592267 -23.57492924 34.95062828 C-23.62382415 32.22977028 -23.64622524 29.50973834 -23.66379642 26.78851891 C-23.68444157 25.95485802 -23.70508671 25.12119713 -23.72635746 24.26227379 C-23.72895116 17.39243696 -21.85876443 12.20782633 -17.30832767 7.01508141 C-16.65735111 6.47625328 -16.00637455 5.93742516 -15.33567142 5.38226891 C-14.68727299 4.82797203 -14.03887455 4.27367516 -13.37082767 3.70258141 C-9.00808255 0.69659314 -5.25098761 0.00673364 0 0 Z M24.72682858 16.25726891 C24.72682858 29.45726891 24.72682858 42.65726891 24.72682858 56.25726891 C30.00682858 56.91726891 35.28682858 57.57726891 40.72682858 58.25726891 C48.65668581 62.7886159 48.65668581 62.7886159 51.03932858 65.69476891 C51.50983639 66.25035484 51.9803442 66.80594078 52.46510983 67.37836266 C56.26207292 73.03266373 56.43459347 78.65146326 55.72682858 85.25726891 C53.93112765 92.44007262 49.82744843 97.19404771 43.72682858 101.25726891 C37.43457795 103.91937494 31.82953016 103.66537711 24.72682858 104.25726891 C24.72682858 114.81726891 24.72682858 125.37726891 24.72682858 136.25726891 C29.67545347 136.75336914 29.67545347 136.75336914 34.62746334 137.21332359 C41.28103383 137.96287837 46.68729206 140.38651028 51.03932858 145.69476891 C51.50983639 146.25035484 51.9803442 146.80594078 52.46510983 147.37836266 C56.26207292 153.03266373 56.43459347 158.65146326 55.72682858 165.25726891 C53.93112765 172.44007262 49.82744843 177.19404771 43.72682858 181.25726891 C37.43457795 183.91937494 31.82953016 183.66537711 24.72682858 184.25726891 C24.72682858 194.81726891 24.72682858 205.37726891 24.72682858 216.25726891 C29.67545347 216.75336914 29.67545347 216.75336914 34.62746334 217.21332359 C41.28103383 217.96287837 46.68729206 220.38651028 51.03932858 225.69476891 C51.50983639 226.25035484 51.9803442 226.80594078 52.46510983 227.37836266 C56.26207292 233.03266373 56.43459347 238.65146326 55.72682858 245.25726891 C53.93112765 252.44007262 49.82744843 257.19404771 43.72682858 261.25726891 C37.43457795 263.91937494 31.82953016 263.66537711 24.72682858 264.25726891 C24.72682858 274.81726891 24.72682858 285.37726891 24.72682858 296.25726891 C29.67545347 296.75336914 29.67545347 296.75336914 34.62746334 297.21332359 C41.28103383 297.96287837 46.68729206 300.38651028 51.03932858 305.69476891 C51.50983639 306.25035484 51.9803442 306.80594078 52.46510983 307.37836266 C56.26207292 313.03266373 56.43459347 318.65146326 55.72682858 325.25726891 C53.93112765 332.44007262 49.82744843 337.19404771 43.72682858 341.25726891 C37.43457795 343.91937494 31.82953016 343.66537711 24.72682858 344.25726891 C24.72682858 354.81726891 24.72682858 365.37726891 24.72682858 376.25726891 C29.67545347 376.75336914 29.67545347 376.75336914 34.62746334 377.21332359 C41.28103383 377.96287837 46.68729206 380.38651028 51.03932858 385.69476891 C51.50983639 386.25035484 51.9803442 386.80594078 52.46510983 387.37836266 C56.26207292 393.03266373 56.43459347 398.65146326 55.72682858 405.25726891 C53.93112765 412.44007262 49.82744843 417.19404771 43.72682858 421.25726891 C37.43457795 423.91937494 31.82953016 423.66537711 24.72682858 424.25726891 C24.72682858 437.45726891 24.72682858 450.65726891 24.72682858 464.25726891 C130.32682858 464.25726891 235.92682858 464.25726891 344.72682858 464.25726891 C344.72682858 316.41726891 344.72682858 168.57726891 344.72682858 16.25726891 C239.12682858 16.25726891 133.52682858 16.25726891 24.72682858 16.25726891 Z " fill="#000000" transform="translate(79.27317142486572,15.742731094360352)"/>
<path d="M0 0 C0.93587779 -0.00638882 1.87175557 -0.01277764 2.83599329 -0.01936007 C5.97390081 -0.03462807 9.11054941 -0.01413625 12.24841309 0.00622559 C14.49717121 0.00272495 16.74592687 -0.00293298 18.99467468 -0.0105896 C25.10418762 -0.02485526 31.21325146 -0.00775818 37.32272148 0.01569557 C43.71189088 0.03577889 50.10104117 0.02992632 56.49023438 0.02758789 C67.22042909 0.02764149 77.95040738 0.04728997 88.68054199 0.07946777 C99.71932389 0.11255884 110.75792243 0.12672602 121.79675293 0.1204834 C135.10096816 0.11299667 148.40506614 0.12036879 161.70927429 0.14213562 C166.79051337 0.15031714 171.87171203 0.15301778 176.95295715 0.15144348 C182.93494573 0.15056549 188.91671474 0.16475806 194.8986454 0.19067001 C197.09606677 0.1978412 199.29351149 0.19991088 201.490942 0.19655228 C204.48663238 0.19284651 207.48167875 0.207554 210.47729492 0.22705078 C211.35034728 0.22172286 212.22339963 0.21639493 213.12290812 0.21090555 C217.80575476 0.26361804 220.94440925 0.56040605 224.73864746 3.62145996 C226.14322483 6.4306147 225.98759903 8.5095653 225.73864746 11.62145996 C223.95880341 14.75737566 223.21556539 15.46248732 219.73864746 16.62145996 C216.72426594 16.72651093 213.73259986 16.77365266 210.71780396 16.77536011 C209.78363502 16.77974236 208.84946608 16.78412462 207.886989 16.78863966 C204.74330153 16.80204016 201.5996421 16.80820928 198.45593262 16.81433105 C196.20747246 16.82223086 193.95901357 16.83049974 191.71055603 16.83911133 C184.31628634 16.86533952 176.92201096 16.88063707 169.52770996 16.89489746 C166.98481619 16.9002563 164.44192247 16.90563381 161.89902878 16.91102982 C151.32523651 16.93265729 140.75144559 16.95154727 130.1776371 16.96265221 C127.43430197 16.9655819 124.69096688 16.96854357 121.94763184 16.97155762 C120.92486775 16.97267669 120.92486775 16.97267669 119.88144176 16.97381838 C108.83040473 16.98647822 97.77952836 17.01971099 86.72856648 17.06135945 C75.3842454 17.10376342 64.04003647 17.1269375 52.69562566 17.13257277 C46.32545715 17.13623286 39.95556118 17.14832472 33.58546829 17.18067551 C27.59526433 17.21066151 21.6054992 17.21710165 15.61523628 17.20529175 C13.41456406 17.20507024 11.21387202 17.21343879 9.01326942 17.23094559 C6.01279879 17.25352005 3.0139353 17.2453964 0.01345825 17.22946167 C-0.86095834 17.24334376 -1.73537493 17.25722584 -2.636289 17.2715286 C-7.00268698 17.21424249 -8.73694179 17.02684778 -12.30196571 14.27095985 C-14.26135254 11.62145996 -14.26135254 11.62145996 -14.88635254 8.62145996 C-13.167393 0.37045418 -7.11690156 -0.10204233 0 0 Z " fill="#000000" transform="translate(166.2613525390625,439.3785400390625)"/>
<path d="M0 0 C0.93587779 -0.00638882 1.87175557 -0.01277764 2.83599329 -0.01936007 C5.97390081 -0.03462807 9.11054941 -0.01413625 12.24841309 0.00622559 C14.49717121 0.00272495 16.74592687 -0.00293298 18.99467468 -0.0105896 C25.10418762 -0.02485526 31.21325146 -0.00775818 37.32272148 0.01569557 C43.71189088 0.03577889 50.10104117 0.02992632 56.49023438 0.02758789 C67.22042909 0.02764149 77.95040738 0.04728997 88.68054199 0.07946777 C99.71932389 0.11255884 110.75792243 0.12672602 121.79675293 0.1204834 C135.10096816 0.11299667 148.40506614 0.12036879 161.70927429 0.14213562 C166.79051337 0.15031714 171.87171203 0.15301778 176.95295715 0.15144348 C182.93494573 0.15056549 188.91671474 0.16475806 194.8986454 0.19067001 C197.09606677 0.1978412 199.29351149 0.19991088 201.490942 0.19655228 C204.48663238 0.19284651 207.48167875 0.207554 210.47729492 0.22705078 C211.35034728 0.22172286 212.22339963 0.21639493 213.12290812 0.21090555 C217.80575476 0.26361804 220.94440925 0.56040605 224.73864746 3.62145996 C226.14322483 6.4306147 225.98759903 8.5095653 225.73864746 11.62145996 C223.95880341 14.75737566 223.21556539 15.46248732 219.73864746 16.62145996 C216.72426594 16.72651093 213.73259986 16.77365266 210.71780396 16.77536011 C209.78363502 16.77974236 208.84946608 16.78412462 207.886989 16.78863966 C204.74330153 16.80204016 201.5996421 16.80820928 198.45593262 16.81433105 C196.20747246 16.82223086 193.95901357 16.83049974 191.71055603 16.83911133 C184.31628634 16.86533952 176.92201096 16.88063707 169.52770996 16.89489746 C166.98481619 16.9002563 164.44192247 16.90563381 161.89902878 16.91102982 C151.32523651 16.93265729 140.75144559 16.95154727 130.1776371 16.96265221 C127.43430197 16.9655819 124.69096688 16.96854357 121.94763184 16.97155762 C120.92486775 16.97267669 120.92486775 16.97267669 119.88144176 16.97381838 C108.83040473 16.98647822 97.77952836 17.01971099 86.72856648 17.06135945 C75.3842454 17.10376342 64.04003647 17.1269375 52.69562566 17.13257277 C46.32545715 17.13623286 39.95556118 17.14832472 33.58546829 17.18067551 C27.59526433 17.21066151 21.6054992 17.21710165 15.61523628 17.20529175 C13.41456406 17.20507024 11.21387202 17.21343879 9.01326942 17.23094559 C6.01279879 17.25352005 3.0139353 17.2453964 0.01345825 17.22946167 C-0.86095834 17.24334376 -1.73537493 17.25722584 -2.636289 17.2715286 C-7.00268698 17.21424249 -8.73694179 17.02684778 -12.30196571 14.27095985 C-14.26135254 11.62145996 -14.26135254 11.62145996 -14.88635254 8.62145996 C-13.167393 0.37045418 -7.11690156 -0.10204233 0 0 Z " fill="#000000" transform="translate(166.2613525390625,407.3785400390625)"/>
<path d="M0 0 C0.93587779 -0.00638882 1.87175557 -0.01277764 2.83599329 -0.01936007 C5.97390081 -0.03462807 9.11054941 -0.01413625 12.24841309 0.00622559 C14.49717121 0.00272495 16.74592687 -0.00293298 18.99467468 -0.0105896 C25.10418762 -0.02485526 31.21325146 -0.00775818 37.32272148 0.01569557 C43.71189088 0.03577889 50.10104117 0.02992632 56.49023438 0.02758789 C67.22042909 0.02764149 77.95040738 0.04728997 88.68054199 0.07946777 C99.71932389 0.11255884 110.75792243 0.12672602 121.79675293 0.1204834 C135.10096816 0.11299667 148.40506614 0.12036879 161.70927429 0.14213562 C166.79051337 0.15031714 171.87171203 0.15301778 176.95295715 0.15144348 C182.93494573 0.15056549 188.91671474 0.16475806 194.8986454 0.19067001 C197.09606677 0.1978412 199.29351149 0.19991088 201.490942 0.19655228 C204.48663238 0.19284651 207.48167875 0.207554 210.47729492 0.22705078 C211.35034728 0.22172286 212.22339963 0.21639493 213.12290812 0.21090555 C217.80575476 0.26361804 220.94440925 0.56040605 224.73864746 3.62145996 C226.14322483 6.4306147 225.98759903 8.5095653 225.73864746 11.62145996 C223.95880341 14.75737566 223.21556539 15.46248732 219.73864746 16.62145996 C216.72426594 16.72651093 213.73259986 16.77365266 210.71780396 16.77536011 C209.78363502 16.77974236 208.84946608 16.78412462 207.886989 16.78863966 C204.74330153 16.80204016 201.5996421 16.80820928 198.45593262 16.81433105 C196.20747246 16.82223086 193.95901357 16.83049974 191.71055603 16.83911133 C184.31628634 16.86533952 176.92201096 16.88063707 169.52770996 16.89489746 C166.98481619 16.9002563 164.44192247 16.90563381 161.89902878 16.91102982 C151.32523651 16.93265729 140.75144559 16.95154727 130.1776371 16.96265221 C127.43430197 16.9655819 124.69096688 16.96854357 121.94763184 16.97155762 C120.92486775 16.97267669 120.92486775 16.97267669 119.88144176 16.97381838 C108.83040473 16.98647822 97.77952836 17.01971099 86.72856648 17.06135945 C75.3842454 17.10376342 64.04003647 17.1269375 52.69562566 17.13257277 C46.32545715 17.13623286 39.95556118 17.14832472 33.58546829 17.18067551 C27.59526433 17.21066151 21.6054992 17.21710165 15.61523628 17.20529175 C13.41456406 17.20507024 11.21387202 17.21343879 9.01326942 17.23094559 C6.01279879 17.25352005 3.0139353 17.2453964 0.01345825 17.22946167 C-0.86095834 17.24334376 -1.73537493 17.25722584 -2.636289 17.2715286 C-7.00268698 17.21424249 -8.73694179 17.02684778 -12.30196571 14.27095985 C-14.26135254 11.62145996 -14.26135254 11.62145996 -14.88635254 8.62145996 C-13.167393 0.37045418 -7.11690156 -0.10204233 0 0 Z " fill="#000000" transform="translate(166.2613525390625,375.3785400390625)"/>
<path d="M0 0 C0.93587779 -0.00638882 1.87175557 -0.01277764 2.83599329 -0.01936007 C5.97390081 -0.03462807 9.11054941 -0.01413625 12.24841309 0.00622559 C14.49717121 0.00272495 16.74592687 -0.00293298 18.99467468 -0.0105896 C25.10418762 -0.02485526 31.21325146 -0.00775818 37.32272148 0.01569557 C43.71189088 0.03577889 50.10104117 0.02992632 56.49023438 0.02758789 C67.22042909 0.02764149 77.95040738 0.04728997 88.68054199 0.07946777 C99.71932389 0.11255884 110.75792243 0.12672602 121.79675293 0.1204834 C135.10096816 0.11299667 148.40506614 0.12036879 161.70927429 0.14213562 C166.79051337 0.15031714 171.87171203 0.15301778 176.95295715 0.15144348 C182.93494573 0.15056549 188.91671474 0.16475806 194.8986454 0.19067001 C197.09606677 0.1978412 199.29351149 0.19991088 201.490942 0.19655228 C204.48663238 0.19284651 207.48167875 0.207554 210.47729492 0.22705078 C211.35034728 0.22172286 212.22339963 0.21639493 213.12290812 0.21090555 C217.80575476 0.26361804 220.94440925 0.56040605 224.73864746 3.62145996 C226.14322483 6.4306147 225.98759903 8.5095653 225.73864746 11.62145996 C223.95880341 14.75737566 223.21556539 15.46248732 219.73864746 16.62145996 C216.72426594 16.72651093 213.73259986 16.77365266 210.71780396 16.77536011 C209.78363502 16.77974236 208.84946608 16.78412462 207.886989 16.78863966 C204.74330153 16.80204016 201.5996421 16.80820928 198.45593262 16.81433105 C196.20747246 16.82223086 193.95901357 16.83049974 191.71055603 16.83911133 C184.31628634 16.86533952 176.92201096 16.88063707 169.52770996 16.89489746 C166.98481619 16.9002563 164.44192247 16.90563381 161.89902878 16.91102982 C151.32523651 16.93265729 140.75144559 16.95154727 130.1776371 16.96265221 C127.43430197 16.9655819 124.69096688 16.96854357 121.94763184 16.97155762 C120.92486775 16.97267669 120.92486775 16.97267669 119.88144176 16.97381838 C108.83040473 16.98647822 97.77952836 17.01971099 86.72856648 17.06135945 C75.3842454 17.10376342 64.04003647 17.1269375 52.69562566 17.13257277 C46.32545715 17.13623286 39.95556118 17.14832472 33.58546829 17.18067551 C27.59526433 17.21066151 21.6054992 17.21710165 15.61523628 17.20529175 C13.41456406 17.20507024 11.21387202 17.21343879 9.01326942 17.23094559 C6.01279879 17.25352005 3.0139353 17.2453964 0.01345825 17.22946167 C-0.86095834 17.24334376 -1.73537493 17.25722584 -2.636289 17.2715286 C-7.00268698 17.21424249 -8.73694179 17.02684778 -12.30196571 14.27095985 C-14.26135254 11.62145996 -14.26135254 11.62145996 -14.88635254 8.62145996 C-13.167393 0.37045418 -7.11690156 -0.10204233 0 0 Z " fill="#000000" transform="translate(166.2613525390625,343.3785400390625)"/>
<path d="M0 0 C0.93587779 -0.00638882 1.87175557 -0.01277764 2.83599329 -0.01936007 C5.97390081 -0.03462807 9.11054941 -0.01413625 12.24841309 0.00622559 C14.49717121 0.00272495 16.74592687 -0.00293298 18.99467468 -0.0105896 C25.10418762 -0.02485526 31.21325146 -0.00775818 37.32272148 0.01569557 C43.71189088 0.03577889 50.10104117 0.02992632 56.49023438 0.02758789 C67.22042909 0.02764149 77.95040738 0.04728997 88.68054199 0.07946777 C99.71932389 0.11255884 110.75792243 0.12672602 121.79675293 0.1204834 C135.10096816 0.11299667 148.40506614 0.12036879 161.70927429 0.14213562 C166.79051337 0.15031714 171.87171203 0.15301778 176.95295715 0.15144348 C182.93494573 0.15056549 188.91671474 0.16475806 194.8986454 0.19067001 C197.09606677 0.1978412 199.29351149 0.19991088 201.490942 0.19655228 C204.48663238 0.19284651 207.48167875 0.207554 210.47729492 0.22705078 C211.35034728 0.22172286 212.22339963 0.21639493 213.12290812 0.21090555 C217.80575476 0.26361804 220.94440925 0.56040605 224.73864746 3.62145996 C226.14322483 6.4306147 225.98759903 8.5095653 225.73864746 11.62145996 C223.95880341 14.75737566 223.21556539 15.46248732 219.73864746 16.62145996 C216.72426594 16.72651093 213.73259986 16.77365266 210.71780396 16.77536011 C209.78363502 16.77974236 208.84946608 16.78412462 207.886989 16.78863966 C204.74330153 16.80204016 201.5996421 16.80820928 198.45593262 16.81433105 C196.20747246 16.82223086 193.95901357 16.83049974 191.71055603 16.83911133 C184.31628634 16.86533952 176.92201096 16.88063707 169.52770996 16.89489746 C166.98481619 16.9002563 164.44192247 16.90563381 161.89902878 16.91102982 C151.32523651 16.93265729 140.75144559 16.95154727 130.1776371 16.96265221 C127.43430197 16.9655819 124.69096688 16.96854357 121.94763184 16.97155762 C120.92486775 16.97267669 120.92486775 16.97267669 119.88144176 16.97381838 C108.83040473 16.98647822 97.77952836 17.01971099 86.72856648 17.06135945 C75.3842454 17.10376342 64.04003647 17.1269375 52.69562566 17.13257277 C46.32545715 17.13623286 39.95556118 17.14832472 33.58546829 17.18067551 C27.59526433 17.21066151 21.6054992 17.21710165 15.61523628 17.20529175 C13.41456406 17.20507024 11.21387202 17.21343879 9.01326942 17.23094559 C6.01279879 17.25352005 3.0139353 17.2453964 0.01345825 17.22946167 C-0.86095834 17.24334376 -1.73537493 17.25722584 -2.636289 17.2715286 C-7.00268698 17.21424249 -8.73694179 17.02684778 -12.30196571 14.27095985 C-14.26135254 11.62145996 -14.26135254 11.62145996 -14.88635254 8.62145996 C-13.167393 0.37045418 -7.11690156 -0.10204233 0 0 Z " fill="#000000" transform="translate(166.2613525390625,311.3785400390625)"/>
<path d="M0 0 C0.93587779 -0.00638882 1.87175557 -0.01277764 2.83599329 -0.01936007 C5.97390081 -0.03462807 9.11054941 -0.01413625 12.24841309 0.00622559 C14.49717121 0.00272495 16.74592687 -0.00293298 18.99467468 -0.0105896 C25.10418762 -0.02485526 31.21325146 -0.00775818 37.32272148 0.01569557 C43.71189088 0.03577889 50.10104117 0.02992632 56.49023438 0.02758789 C67.22042909 0.02764149 77.95040738 0.04728997 88.68054199 0.07946777 C99.71932389 0.11255884 110.75792243 0.12672602 121.79675293 0.1204834 C135.10096816 0.11299667 148.40506614 0.12036879 161.70927429 0.14213562 C166.79051337 0.15031714 171.87171203 0.15301778 176.95295715 0.15144348 C182.93494573 0.15056549 188.91671474 0.16475806 194.8986454 0.19067001 C197.09606677 0.1978412 199.29351149 0.19991088 201.490942 0.19655228 C204.48663238 0.19284651 207.48167875 0.207554 210.47729492 0.22705078 C211.35034728 0.22172286 212.22339963 0.21639493 213.12290812 0.21090555 C217.80575476 0.26361804 220.94440925 0.56040605 224.73864746 3.62145996 C226.14322483 6.4306147 225.98759903 8.5095653 225.73864746 11.62145996 C223.95880341 14.75737566 223.21556539 15.46248732 219.73864746 16.62145996 C216.72426594 16.72651093 213.73259986 16.77365266 210.71780396 16.77536011 C209.78363502 16.77974236 208.84946608 16.78412462 207.886989 16.78863966 C204.74330153 16.80204016 201.5996421 16.80820928 198.45593262 16.81433105 C196.20747246 16.82223086 193.95901357 16.83049974 191.71055603 16.83911133 C184.31628634 16.86533952 176.92201096 16.88063707 169.52770996 16.89489746 C166.98481619 16.9002563 164.44192247 16.90563381 161.89902878 16.91102982 C151.32523651 16.93265729 140.75144559 16.95154727 130.1776371 16.96265221 C127.43430197 16.9655819 124.69096688 16.96854357 121.94763184 16.97155762 C120.92486775 16.97267669 120.92486775 16.97267669 119.88144176 16.97381838 C108.83040473 16.98647822 97.77952836 17.01971099 86.72856648 17.06135945 C75.3842454 17.10376342 64.04003647 17.1269375 52.69562566 17.13257277 C46.32545715 17.13623286 39.95556118 17.14832472 33.58546829 17.18067551 C27.59526433 17.21066151 21.6054992 17.21710165 15.61523628 17.20529175 C13.41456406 17.20507024 11.21387202 17.21343879 9.01326942 17.23094559 C6.01279879 17.25352005 3.0139353 17.2453964 0.01345825 17.22946167 C-0.86095834 17.24334376 -1.73537493 17.25722584 -2.636289 17.2715286 C-7.00268698 17.21424249 -8.73694179 17.02684778 -12.30196571 14.27095985 C-14.26135254 11.62145996 -14.26135254 11.62145996 -14.88635254 8.62145996 C-13.167393 0.37045418 -7.11690156 -0.10204233 0 0 Z " fill="#000000" transform="translate(166.2613525390625,279.3785400390625)"/>
<path d="M0 0 C0.93587779 -0.00638882 1.87175557 -0.01277764 2.83599329 -0.01936007 C5.97390081 -0.03462807 9.11054941 -0.01413625 12.24841309 0.00622559 C14.49717121 0.00272495 16.74592687 -0.00293298 18.99467468 -0.0105896 C25.10418762 -0.02485526 31.21325146 -0.00775818 37.32272148 0.01569557 C43.71189088 0.03577889 50.10104117 0.02992632 56.49023438 0.02758789 C67.22042909 0.02764149 77.95040738 0.04728997 88.68054199 0.07946777 C99.71932389 0.11255884 110.75792243 0.12672602 121.79675293 0.1204834 C135.10096816 0.11299667 148.40506614 0.12036879 161.70927429 0.14213562 C166.79051337 0.15031714 171.87171203 0.15301778 176.95295715 0.15144348 C182.93494573 0.15056549 188.91671474 0.16475806 194.8986454 0.19067001 C197.09606677 0.1978412 199.29351149 0.19991088 201.490942 0.19655228 C204.48663238 0.19284651 207.48167875 0.207554 210.47729492 0.22705078 C211.35034728 0.22172286 212.22339963 0.21639493 213.12290812 0.21090555 C217.80575476 0.26361804 220.94440925 0.56040605 224.73864746 3.62145996 C226.14322483 6.4306147 225.98759903 8.5095653 225.73864746 11.62145996 C223.95880341 14.75737566 223.21556539 15.46248732 219.73864746 16.62145996 C216.72426594 16.72651093 213.73259986 16.77365266 210.71780396 16.77536011 C209.78363502 16.77974236 208.84946608 16.78412462 207.886989 16.78863966 C204.74330153 16.80204016 201.5996421 16.80820928 198.45593262 16.81433105 C196.20747246 16.82223086 193.95901357 16.83049974 191.71055603 16.83911133 C184.31628634 16.86533952 176.92201096 16.88063707 169.52770996 16.89489746 C166.98481619 16.9002563 164.44192247 16.90563381 161.89902878 16.91102982 C151.32523651 16.93265729 140.75144559 16.95154727 130.1776371 16.96265221 C127.43430197 16.9655819 124.69096688 16.96854357 121.94763184 16.97155762 C120.92486775 16.97267669 120.92486775 16.97267669 119.88144176 16.97381838 C108.83040473 16.98647822 97.77952836 17.01971099 86.72856648 17.06135945 C75.3842454 17.10376342 64.04003647 17.1269375 52.69562566 17.13257277 C46.32545715 17.13623286 39.95556118 17.14832472 33.58546829 17.18067551 C27.59526433 17.21066151 21.6054992 17.21710165 15.61523628 17.20529175 C13.41456406 17.20507024 11.21387202 17.21343879 9.01326942 17.23094559 C6.01279879 17.25352005 3.0139353 17.2453964 0.01345825 17.22946167 C-0.86095834 17.24334376 -1.73537493 17.25722584 -2.636289 17.2715286 C-7.00268698 17.21424249 -8.73694179 17.02684778 -12.30196571 14.27095985 C-14.26135254 11.62145996 -14.26135254 11.62145996 -14.88635254 8.62145996 C-13.167393 0.37045418 -7.11690156 -0.10204233 0 0 Z " fill="#000000" transform="translate(166.2613525390625,247.3785400390625)"/>
<path d="M0 0 C0.93587779 -0.00638882 1.87175557 -0.01277764 2.83599329 -0.01936007 C5.97390081 -0.03462807 9.11054941 -0.01413625 12.24841309 0.00622559 C14.49717121 0.00272495 16.74592687 -0.00293298 18.99467468 -0.0105896 C25.10418762 -0.02485526 31.21325146 -0.00775818 37.32272148 0.01569557 C43.71189088 0.03577889 50.10104117 0.02992632 56.49023438 0.02758789 C67.22042909 0.02764149 77.95040738 0.04728997 88.68054199 0.07946777 C99.71932389 0.11255884 110.75792243 0.12672602 121.79675293 0.1204834 C135.10096816 0.11299667 148.40506614 0.12036879 161.70927429 0.14213562 C166.79051337 0.15031714 171.87171203 0.15301778 176.95295715 0.15144348 C182.93494573 0.15056549 188.91671474 0.16475806 194.8986454 0.19067001 C197.09606677 0.1978412 199.29351149 0.19991088 201.490942 0.19655228 C204.48663238 0.19284651 207.48167875 0.207554 210.47729492 0.22705078 C211.35034728 0.22172286 212.22339963 0.21639493 213.12290812 0.21090555 C217.80575476 0.26361804 220.94440925 0.56040605 224.73864746 3.62145996 C226.14322483 6.4306147 225.98759903 8.5095653 225.73864746 11.62145996 C223.95880341 14.75737566 223.21556539 15.46248732 219.73864746 16.62145996 C216.72426594 16.72651093 213.73259986 16.77365266 210.71780396 16.77536011 C209.78363502 16.77974236 208.84946608 16.78412462 207.886989 16.78863966 C204.74330153 16.80204016 201.5996421 16.80820928 198.45593262 16.81433105 C196.20747246 16.82223086 193.95901357 16.83049974 191.71055603 16.83911133 C184.31628634 16.86533952 176.92201096 16.88063707 169.52770996 16.89489746 C166.98481619 16.9002563 164.44192247 16.90563381 161.89902878 16.91102982 C151.32523651 16.93265729 140.75144559 16.95154727 130.1776371 16.96265221 C127.43430197 16.9655819 124.69096688 16.96854357 121.94763184 16.97155762 C120.92486775 16.97267669 120.92486775 16.97267669 119.88144176 16.97381838 C108.83040473 16.98647822 97.77952836 17.01971099 86.72856648 17.06135945 C75.3842454 17.10376342 64.04003647 17.1269375 52.69562566 17.13257277 C46.32545715 17.13623286 39.95556118 17.14832472 33.58546829 17.18067551 C27.59526433 17.21066151 21.6054992 17.21710165 15.61523628 17.20529175 C13.41456406 17.20507024 11.21387202 17.21343879 9.01326942 17.23094559 C6.01279879 17.25352005 3.0139353 17.2453964 0.01345825 17.22946167 C-0.86095834 17.24334376 -1.73537493 17.25722584 -2.636289 17.2715286 C-7.00268698 17.21424249 -8.73694179 17.02684778 -12.30196571 14.27095985 C-14.26135254 11.62145996 -14.26135254 11.62145996 -14.88635254 8.62145996 C-13.167393 0.37045418 -7.11690156 -0.10204233 0 0 Z " fill="#000000" transform="translate(166.2613525390625,215.3785400390625)"/>
<path d="M0 0 C0.93587779 -0.00638882 1.87175557 -0.01277764 2.83599329 -0.01936007 C5.97390081 -0.03462807 9.11054941 -0.01413625 12.24841309 0.00622559 C14.49717121 0.00272495 16.74592687 -0.00293298 18.99467468 -0.0105896 C25.10418762 -0.02485526 31.21325146 -0.00775818 37.32272148 0.01569557 C43.71189088 0.03577889 50.10104117 0.02992632 56.49023438 0.02758789 C67.22042909 0.02764149 77.95040738 0.04728997 88.68054199 0.07946777 C99.71932389 0.11255884 110.75792243 0.12672602 121.79675293 0.1204834 C135.10096816 0.11299667 148.40506614 0.12036879 161.70927429 0.14213562 C166.79051337 0.15031714 171.87171203 0.15301778 176.95295715 0.15144348 C182.93494573 0.15056549 188.91671474 0.16475806 194.8986454 0.19067001 C197.09606677 0.1978412 199.29351149 0.19991088 201.490942 0.19655228 C204.48663238 0.19284651 207.48167875 0.207554 210.47729492 0.22705078 C211.35034728 0.22172286 212.22339963 0.21639493 213.12290812 0.21090555 C217.80575476 0.26361804 220.94440925 0.56040605 224.73864746 3.62145996 C226.14322483 6.4306147 225.98759903 8.5095653 225.73864746 11.62145996 C223.95880341 14.75737566 223.21556539 15.46248732 219.73864746 16.62145996 C216.72426594 16.72651093 213.73259986 16.77365266 210.71780396 16.77536011 C209.78363502 16.77974236 208.84946608 16.78412462 207.886989 16.78863966 C204.74330153 16.80204016 201.5996421 16.80820928 198.45593262 16.81433105 C196.20747246 16.82223086 193.95901357 16.83049974 191.71055603 16.83911133 C184.31628634 16.86533952 176.92201096 16.88063707 169.52770996 16.89489746 C166.98481619 16.9002563 164.44192247 16.90563381 161.89902878 16.91102982 C151.32523651 16.93265729 140.75144559 16.95154727 130.1776371 16.96265221 C127.43430197 16.9655819 124.69096688 16.96854357 121.94763184 16.97155762 C120.92486775 16.97267669 120.92486775 16.97267669 119.88144176 16.97381838 C108.83040473 16.98647822 97.77952836 17.01971099 86.72856648 17.06135945 C75.3842454 17.10376342 64.04003647 17.1269375 52.69562566 17.13257277 C46.32545715 17.13623286 39.95556118 17.14832472 33.58546829 17.18067551 C27.59526433 17.21066151 21.6054992 17.21710165 15.61523628 17.20529175 C13.41456406 17.20507024 11.21387202 17.21343879 9.01326942 17.23094559 C6.01279879 17.25352005 3.0139353 17.2453964 0.01345825 17.22946167 C-0.86095834 17.24334376 -1.73537493 17.25722584 -2.636289 17.2715286 C-7.00268698 17.21424249 -8.73694179 17.02684778 -12.30196571 14.27095985 C-14.26135254 11.62145996 -14.26135254 11.62145996 -14.88635254 8.62145996 C-13.167393 0.37045418 -7.11690156 -0.10204233 0 0 Z " fill="#000000" transform="translate(166.2613525390625,183.3785400390625)"/>
<path d="M0 0 C0.93587779 -0.00638882 1.87175557 -0.01277764 2.83599329 -0.01936007 C5.97390081 -0.03462807 9.11054941 -0.01413625 12.24841309 0.00622559 C14.49717121 0.00272495 16.74592687 -0.00293298 18.99467468 -0.0105896 C25.10418762 -0.02485526 31.21325146 -0.00775818 37.32272148 0.01569557 C43.71189088 0.03577889 50.10104117 0.02992632 56.49023438 0.02758789 C67.22042909 0.02764149 77.95040738 0.04728997 88.68054199 0.07946777 C99.71932389 0.11255884 110.75792243 0.12672602 121.79675293 0.1204834 C135.10096816 0.11299667 148.40506614 0.12036879 161.70927429 0.14213562 C166.79051337 0.15031714 171.87171203 0.15301778 176.95295715 0.15144348 C182.93494573 0.15056549 188.91671474 0.16475806 194.8986454 0.19067001 C197.09606677 0.1978412 199.29351149 0.19991088 201.490942 0.19655228 C204.48663238 0.19284651 207.48167875 0.207554 210.47729492 0.22705078 C211.35034728 0.22172286 212.22339963 0.21639493 213.12290812 0.21090555 C217.80575476 0.26361804 220.94440925 0.56040605 224.73864746 3.62145996 C226.14322483 6.4306147 225.98759903 8.5095653 225.73864746 11.62145996 C223.95880341 14.75737566 223.21556539 15.46248732 219.73864746 16.62145996 C216.72426594 16.72651093 213.73259986 16.77365266 210.71780396 16.77536011 C209.78363502 16.77974236 208.84946608 16.78412462 207.886989 16.78863966 C204.74330153 16.80204016 201.5996421 16.80820928 198.45593262 16.81433105 C196.20747246 16.82223086 193.95901357 16.83049974 191.71055603 16.83911133 C184.31628634 16.86533952 176.92201096 16.88063707 169.52770996 16.89489746 C166.98481619 16.9002563 164.44192247 16.90563381 161.89902878 16.91102982 C151.32523651 16.93265729 140.75144559 16.95154727 130.1776371 16.96265221 C127.43430197 16.9655819 124.69096688 16.96854357 121.94763184 16.97155762 C120.92486775 16.97267669 120.92486775 16.97267669 119.88144176 16.97381838 C108.83040473 16.98647822 97.77952836 17.01971099 86.72856648 17.06135945 C75.3842454 17.10376342 64.04003647 17.1269375 52.69562566 17.13257277 C46.32545715 17.13623286 39.95556118 17.14832472 33.58546829 17.18067551 C27.59526433 17.21066151 21.6054992 17.21710165 15.61523628 17.20529175 C13.41456406 17.20507024 11.21387202 17.21343879 9.01326942 17.23094559 C6.01279879 17.25352005 3.0139353 17.2453964 0.01345825 17.22946167 C-0.86095834 17.24334376 -1.73537493 17.25722584 -2.636289 17.2715286 C-7.00268698 17.21424249 -8.73694179 17.02684778 -12.30196571 14.27095985 C-14.26135254 11.62145996 -14.26135254 11.62145996 -14.88635254 8.62145996 C-13.167393 0.37045418 -7.11690156 -0.10204233 0 0 Z " fill="#000000" transform="translate(166.2613525390625,151.3785400390625)"/>
<path d="M0 0 C0.93587779 -0.00638882 1.87175557 -0.01277764 2.83599329 -0.01936007 C5.97390081 -0.03462807 9.11054941 -0.01413625 12.24841309 0.00622559 C14.49717121 0.00272495 16.74592687 -0.00293298 18.99467468 -0.0105896 C25.10418762 -0.02485526 31.21325146 -0.00775818 37.32272148 0.01569557 C43.71189088 0.03577889 50.10104117 0.02992632 56.49023438 0.02758789 C67.22042909 0.02764149 77.95040738 0.04728997 88.68054199 0.07946777 C99.71932389 0.11255884 110.75792243 0.12672602 121.79675293 0.1204834 C135.10096816 0.11299667 148.40506614 0.12036879 161.70927429 0.14213562 C166.79051337 0.15031714 171.87171203 0.15301778 176.95295715 0.15144348 C182.93494573 0.15056549 188.91671474 0.16475806 194.8986454 0.19067001 C197.09606677 0.1978412 199.29351149 0.19991088 201.490942 0.19655228 C204.48663238 0.19284651 207.48167875 0.207554 210.47729492 0.22705078 C211.35034728 0.22172286 212.22339963 0.21639493 213.12290812 0.21090555 C217.80575476 0.26361804 220.94440925 0.56040605 224.73864746 3.62145996 C226.14322483 6.4306147 225.98759903 8.5095653 225.73864746 11.62145996 C223.95880341 14.75737566 223.21556539 15.46248732 219.73864746 16.62145996 C216.72426594 16.72651093 213.73259986 16.77365266 210.71780396 16.77536011 C209.78363502 16.77974236 208.84946608 16.78412462 207.886989 16.78863966 C204.74330153 16.80204016 201.5996421 16.80820928 198.45593262 16.81433105 C196.20747246 16.82223086 193.95901357 16.83049974 191.71055603 16.83911133 C184.31628634 16.86533952 176.92201096 16.88063707 169.52770996 16.89489746 C166.98481619 16.9002563 164.44192247 16.90563381 161.89902878 16.91102982 C151.32523651 16.93265729 140.75144559 16.95154727 130.1776371 16.96265221 C127.43430197 16.9655819 124.69096688 16.96854357 121.94763184 16.97155762 C120.92486775 16.97267669 120.92486775 16.97267669 119.88144176 16.97381838 C108.83040473 16.98647822 97.77952836 17.01971099 86.72856648 17.06135945 C75.3842454 17.10376342 64.04003647 17.1269375 52.69562566 17.13257277 C46.32545715 17.13623286 39.95556118 17.14832472 33.58546829 17.18067551 C27.59526433 17.21066151 21.6054992 17.21710165 15.61523628 17.20529175 C13.41456406 17.20507024 11.21387202 17.21343879 9.01326942 17.23094559 C6.01279879 17.25352005 3.0139353 17.2453964 0.01345825 17.22946167 C-0.86095834 17.24334376 -1.73537493 17.25722584 -2.636289 17.2715286 C-7.00268698 17.21424249 -8.73694179 17.02684778 -12.30196571 14.27095985 C-14.26135254 11.62145996 -14.26135254 11.62145996 -14.88635254 8.62145996 C-13.167393 0.37045418 -7.11690156 -0.10204233 0 0 Z " fill="#000000" transform="translate(166.2613525390625,119.3785400390625)"/>
<path d="M0 0 C0.93587779 -0.00638882 1.87175557 -0.01277764 2.83599329 -0.01936007 C5.97390081 -0.03462807 9.11054941 -0.01413625 12.24841309 0.00622559 C14.49717121 0.00272495 16.74592687 -0.00293298 18.99467468 -0.0105896 C25.10418762 -0.02485526 31.21325146 -0.00775818 37.32272148 0.01569557 C43.71189088 0.03577889 50.10104117 0.02992632 56.49023438 0.02758789 C67.22042909 0.02764149 77.95040738 0.04728997 88.68054199 0.07946777 C99.71932389 0.11255884 110.75792243 0.12672602 121.79675293 0.1204834 C135.10096816 0.11299667 148.40506614 0.12036879 161.70927429 0.14213562 C166.79051337 0.15031714 171.87171203 0.15301778 176.95295715 0.15144348 C182.93494573 0.15056549 188.91671474 0.16475806 194.8986454 0.19067001 C197.09606677 0.1978412 199.29351149 0.19991088 201.490942 0.19655228 C204.48663238 0.19284651 207.48167875 0.207554 210.47729492 0.22705078 C211.35034728 0.22172286 212.22339963 0.21639493 213.12290812 0.21090555 C217.80575476 0.26361804 220.94440925 0.56040605 224.73864746 3.62145996 C226.14322483 6.4306147 225.98759903 8.5095653 225.73864746 11.62145996 C223.95880341 14.75737566 223.21556539 15.46248732 219.73864746 16.62145996 C216.72426594 16.72651093 213.73259986 16.77365266 210.71780396 16.77536011 C209.78363502 16.77974236 208.84946608 16.78412462 207.886989 16.78863966 C204.74330153 16.80204016 201.5996421 16.80820928 198.45593262 16.81433105 C196.20747246 16.82223086 193.95901357 16.83049974 191.71055603 16.83911133 C184.31628634 16.86533952 176.92201096 16.88063707 169.52770996 16.89489746 C166.98481619 16.9002563 164.44192247 16.90563381 161.89902878 16.91102982 C151.32523651 16.93265729 140.75144559 16.95154727 130.1776371 16.96265221 C127.43430197 16.9655819 124.69096688 16.96854357 121.94763184 16.97155762 C120.92486775 16.97267669 120.92486775 16.97267669 119.88144176 16.97381838 C108.83040473 16.98647822 97.77952836 17.01971099 86.72856648 17.06135945 C75.3842454 17.10376342 64.04003647 17.1269375 52.69562566 17.13257277 C46.32545715 17.13623286 39.95556118 17.14832472 33.58546829 17.18067551 C27.59526433 17.21066151 21.6054992 17.21710165 15.61523628 17.20529175 C13.41456406 17.20507024 11.21387202 17.21343879 9.01326942 17.23094559 C6.01279879 17.25352005 3.0139353 17.2453964 0.01345825 17.22946167 C-0.86095834 17.24334376 -1.73537493 17.25722584 -2.636289 17.2715286 C-7.00268698 17.21424249 -8.73694179 17.02684778 -12.30196571 14.27095985 C-14.26135254 11.62145996 -14.26135254 11.62145996 -14.88635254 8.62145996 C-13.167393 0.37045418 -7.11690156 -0.10204233 0 0 Z " fill="#000000" transform="translate(166.2613525390625,87.3785400390625)"/>
<path d="M0 0 C0.93587779 -0.00638882 1.87175557 -0.01277764 2.83599329 -0.01936007 C5.97390081 -0.03462807 9.11054941 -0.01413625 12.24841309 0.00622559 C14.49717121 0.00272495 16.74592687 -0.00293298 18.99467468 -0.0105896 C25.10418762 -0.02485526 31.21325146 -0.00775818 37.32272148 0.01569557 C43.71189088 0.03577889 50.10104117 0.02992632 56.49023438 0.02758789 C67.22042909 0.02764149 77.95040738 0.04728997 88.68054199 0.07946777 C99.71932389 0.11255884 110.75792243 0.12672602 121.79675293 0.1204834 C135.10096816 0.11299667 148.40506614 0.12036879 161.70927429 0.14213562 C166.79051337 0.15031714 171.87171203 0.15301778 176.95295715 0.15144348 C182.93494573 0.15056549 188.91671474 0.16475806 194.8986454 0.19067001 C197.09606677 0.1978412 199.29351149 0.19991088 201.490942 0.19655228 C204.48663238 0.19284651 207.48167875 0.207554 210.47729492 0.22705078 C211.35034728 0.22172286 212.22339963 0.21639493 213.12290812 0.21090555 C217.80575476 0.26361804 220.94440925 0.56040605 224.73864746 3.62145996 C226.14322483 6.4306147 225.98759903 8.5095653 225.73864746 11.62145996 C223.95880341 14.75737566 223.21556539 15.46248732 219.73864746 16.62145996 C216.72426594 16.72651093 213.73259986 16.77365266 210.71780396 16.77536011 C209.78363502 16.77974236 208.84946608 16.78412462 207.886989 16.78863966 C204.74330153 16.80204016 201.5996421 16.80820928 198.45593262 16.81433105 C196.20747246 16.82223086 193.95901357 16.83049974 191.71055603 16.83911133 C184.31628634 16.86533952 176.92201096 16.88063707 169.52770996 16.89489746 C166.98481619 16.9002563 164.44192247 16.90563381 161.89902878 16.91102982 C151.32523651 16.93265729 140.75144559 16.95154727 130.1776371 16.96265221 C127.43430197 16.9655819 124.69096688 16.96854357 121.94763184 16.97155762 C120.92486775 16.97267669 120.92486775 16.97267669 119.88144176 16.97381838 C108.83040473 16.98647822 97.77952836 17.01971099 86.72856648 17.06135945 C75.3842454 17.10376342 64.04003647 17.1269375 52.69562566 17.13257277 C46.32545715 17.13623286 39.95556118 17.14832472 33.58546829 17.18067551 C27.59526433 17.21066151 21.6054992 17.21710165 15.61523628 17.20529175 C13.41456406 17.20507024 11.21387202 17.21343879 9.01326942 17.23094559 C6.01279879 17.25352005 3.0139353 17.2453964 0.01345825 17.22946167 C-0.86095834 17.24334376 -1.73537493 17.25722584 -2.636289 17.2715286 C-7.00268698 17.21424249 -8.73694179 17.02684778 -12.30196571 14.27095985 C-14.26135254 11.62145996 -14.26135254 11.62145996 -14.88635254 8.62145996 C-13.167393 0.37045418 -7.11690156 -0.10204233 0 0 Z " fill="#000000" transform="translate(166.2613525390625,55.3785400390625)"/>
<path d="M0 0 C7.92 3.96 7.92 3.96 16 8 C16 31.1 16 54.2 16 78 C8.08 81.96 8.08 81.96 0 86 C0 57.62 0 29.24 0 0 Z " fill="#87C690" transform="translate(440,381)"/>
<path d="M0 0 C7.92 3.96 7.92 3.96 16 8 C16 31.1 16 54.2 16 78 C8.08 81.96 8.08 81.96 0 86 C0 57.62 0 29.24 0 0 Z " fill="#EC6E6C" transform="translate(440,269)"/>
<path d="M0 0 C7.92 3.96 7.92 3.96 16 8 C16 31.1 16 54.2 16 78 C8.08 81.96 8.08 81.96 0 86 C0 57.62 0 29.24 0 0 Z " fill="#FEE66B" transform="translate(440,157)"/>
<path d="M0 0 C7.92 3.96 7.92 3.96 16 8 C16 31.1 16 54.2 16 78 C8.08 81.96 8.08 81.96 0 86 C0 57.62 0 29.24 0 0 Z " fill="#A2D3F6" transform="translate(440,45)"/>
<path d="M0 0 C1.73618591 -0.00006042 1.73618591 -0.00006042 3.50744629 -0.00012207 C5.95179684 0.00523347 8.39614694 0.02281732 10.84033203 0.05175781 C14.58028833 0.09359939 18.31844293 0.09282635 22.05859375 0.0859375 C24.43490834 0.09643055 26.81121365 0.10936926 29.1875 0.125 C30.3053186 0.12520142 31.42313721 0.12540283 32.5748291 0.12561035 C34.14170471 0.14947815 34.14170471 0.14947815 35.74023438 0.17382812 C37.11326721 0.18645691 37.11326721 0.18645691 38.51403809 0.19934082 C41.63433226 0.676399 43.54257635 1.76301627 46.09375 3.59375 C47.49832737 6.40290474 47.34270157 8.48185534 47.09375 11.59375 C45.31390595 14.7296657 44.57066793 15.43477736 41.09375 16.59375 C39.38740843 16.70601312 37.67714861 16.76271412 35.96728516 16.78662109 C34.92255035 16.80268402 33.87781555 16.81874695 32.80142212 16.83529663 C28.03363736 16.87977343 23.26599045 16.92079304 18.49804688 16.94384766 C15.98200239 16.96042624 13.46600536 16.98774082 10.95019531 17.02587891 C7.32331909 17.08057216 3.69754524 17.10250922 0.0703125 17.1171875 C-1.61582657 17.15119156 -1.61582657 17.15119156 -3.33602905 17.18588257 C-11.12480853 17.16476223 -11.12480853 17.16476223 -15.11572266 14.24853516 C-16.90625 11.59375 -16.90625 11.59375 -17.53125 8.59375 C-15.57756079 -0.78395819 -7.83903622 -0.11497667 0 0 Z " fill="#7C8387" transform="translate(72.90625,407.40625)"/>
<path d="M0 0 C1.73618591 -0.00006042 1.73618591 -0.00006042 3.50744629 -0.00012207 C5.95179684 0.00523347 8.39614694 0.02281732 10.84033203 0.05175781 C14.58028833 0.09359939 18.31844293 0.09282635 22.05859375 0.0859375 C24.43490834 0.09643055 26.81121365 0.10936926 29.1875 0.125 C30.3053186 0.12520142 31.42313721 0.12540283 32.5748291 0.12561035 C34.14170471 0.14947815 34.14170471 0.14947815 35.74023438 0.17382812 C37.11326721 0.18645691 37.11326721 0.18645691 38.51403809 0.19934082 C41.63433226 0.676399 43.54257635 1.76301627 46.09375 3.59375 C47.49832737 6.40290474 47.34270157 8.48185534 47.09375 11.59375 C45.31390595 14.7296657 44.57066793 15.43477736 41.09375 16.59375 C39.38740843 16.70601312 37.67714861 16.76271412 35.96728516 16.78662109 C34.92255035 16.80268402 33.87781555 16.81874695 32.80142212 16.83529663 C28.03363736 16.87977343 23.26599045 16.92079304 18.49804688 16.94384766 C15.98200239 16.96042624 13.46600536 16.98774082 10.95019531 17.02587891 C7.32331909 17.08057216 3.69754524 17.10250922 0.0703125 17.1171875 C-1.61582657 17.15119156 -1.61582657 17.15119156 -3.33602905 17.18588257 C-11.12480853 17.16476223 -11.12480853 17.16476223 -15.11572266 14.24853516 C-16.90625 11.59375 -16.90625 11.59375 -17.53125 8.59375 C-15.57756079 -0.78395819 -7.83903622 -0.11497667 0 0 Z " fill="#7C8387" transform="translate(72.90625,327.40625)"/>
<path d="M0 0 C1.73618591 -0.00006042 1.73618591 -0.00006042 3.50744629 -0.00012207 C5.95179684 0.00523347 8.39614694 0.02281732 10.84033203 0.05175781 C14.58028833 0.09359939 18.31844293 0.09282635 22.05859375 0.0859375 C24.43490834 0.09643055 26.81121365 0.10936926 29.1875 0.125 C30.3053186 0.12520142 31.42313721 0.12540283 32.5748291 0.12561035 C34.14170471 0.14947815 34.14170471 0.14947815 35.74023438 0.17382812 C37.11326721 0.18645691 37.11326721 0.18645691 38.51403809 0.19934082 C41.63433226 0.676399 43.54257635 1.76301627 46.09375 3.59375 C47.49832737 6.40290474 47.34270157 8.48185534 47.09375 11.59375 C45.31390595 14.7296657 44.57066793 15.43477736 41.09375 16.59375 C39.38740843 16.70601312 37.67714861 16.76271412 35.96728516 16.78662109 C34.92255035 16.80268402 33.87781555 16.81874695 32.80142212 16.83529663 C28.03363736 16.87977343 23.26599045 16.92079304 18.49804688 16.94384766 C15.98200239 16.96042624 13.46600536 16.98774082 10.95019531 17.02587891 C7.32331909 17.08057216 3.69754524 17.10250922 0.0703125 17.1171875 C-1.61582657 17.15119156 -1.61582657 17.15119156 -3.33602905 17.18588257 C-11.12480853 17.16476223 -11.12480853 17.16476223 -15.11572266 14.24853516 C-16.90625 11.59375 -16.90625 11.59375 -17.53125 8.59375 C-15.57756079 -0.78395819 -7.83903622 -0.11497667 0 0 Z " fill="#7C8387" transform="translate(72.90625,247.40625)"/>
<path d="M0 0 C1.73618591 -0.00006042 1.73618591 -0.00006042 3.50744629 -0.00012207 C5.95179684 0.00523347 8.39614694 0.02281732 10.84033203 0.05175781 C14.58028833 0.09359939 18.31844293 0.09282635 22.05859375 0.0859375 C24.43490834 0.09643055 26.81121365 0.10936926 29.1875 0.125 C30.3053186 0.12520142 31.42313721 0.12540283 32.5748291 0.12561035 C34.14170471 0.14947815 34.14170471 0.14947815 35.74023438 0.17382812 C37.11326721 0.18645691 37.11326721 0.18645691 38.51403809 0.19934082 C41.63433226 0.676399 43.54257635 1.76301627 46.09375 3.59375 C47.49832737 6.40290474 47.34270157 8.48185534 47.09375 11.59375 C45.31390595 14.7296657 44.57066793 15.43477736 41.09375 16.59375 C39.38740843 16.70601312 37.67714861 16.76271412 35.96728516 16.78662109 C34.92255035 16.80268402 33.87781555 16.81874695 32.80142212 16.83529663 C28.03363736 16.87977343 23.26599045 16.92079304 18.49804688 16.94384766 C15.98200239 16.96042624 13.46600536 16.98774082 10.95019531 17.02587891 C7.32331909 17.08057216 3.69754524 17.10250922 0.0703125 17.1171875 C-1.61582657 17.15119156 -1.61582657 17.15119156 -3.33602905 17.18588257 C-11.12480853 17.16476223 -11.12480853 17.16476223 -15.11572266 14.24853516 C-16.90625 11.59375 -16.90625 11.59375 -17.53125 8.59375 C-15.57756079 -0.78395819 -7.83903622 -0.11497667 0 0 Z " fill="#7C8387" transform="translate(72.90625,167.40625)"/>
<path d="M0 0 C1.73618591 -0.00006042 1.73618591 -0.00006042 3.50744629 -0.00012207 C5.95179684 0.00523347 8.39614694 0.02281732 10.84033203 0.05175781 C14.58028833 0.09359939 18.31844293 0.09282635 22.05859375 0.0859375 C24.43490834 0.09643055 26.81121365 0.10936926 29.1875 0.125 C30.3053186 0.12520142 31.42313721 0.12540283 32.5748291 0.12561035 C34.14170471 0.14947815 34.14170471 0.14947815 35.74023438 0.17382812 C37.11326721 0.18645691 37.11326721 0.18645691 38.51403809 0.19934082 C41.63433226 0.676399 43.54257635 1.76301627 46.09375 3.59375 C47.49832737 6.40290474 47.34270157 8.48185534 47.09375 11.59375 C45.31390595 14.7296657 44.57066793 15.43477736 41.09375 16.59375 C39.38740843 16.70601312 37.67714861 16.76271412 35.96728516 16.78662109 C34.92255035 16.80268402 33.87781555 16.81874695 32.80142212 16.83529663 C28.03363736 16.87977343 23.26599045 16.92079304 18.49804688 16.94384766 C15.98200239 16.96042624 13.46600536 16.98774082 10.95019531 17.02587891 C7.32331909 17.08057216 3.69754524 17.10250922 0.0703125 17.1171875 C-1.61582657 17.15119156 -1.61582657 17.15119156 -3.33602905 17.18588257 C-11.12480853 17.16476223 -11.12480853 17.16476223 -15.11572266 14.24853516 C-16.90625 11.59375 -16.90625 11.59375 -17.53125 8.59375 C-15.57756079 -0.78395819 -7.83903622 -0.11497667 0 0 Z " fill="#7C8387" transform="translate(72.90625,87.40625)"/>
<path d="M0 0 C0 13.2 0 26.4 0 40 C-5.28 40 -10.56 40 -16 40 C-16.11501351 35.10553633 -16.2144671 30.21578515 -16.2746582 25.32104492 C-16.29975347 23.65747161 -16.33383796 21.99400804 -16.37719727 20.33081055 C-16.4380746 17.93510847 -16.46625769 15.54086749 -16.48828125 13.14453125 C-16.51408768 12.4047554 -16.5398941 11.66497955 -16.56648254 10.90278625 C-16.56844761 7.25863293 -16.06791087 5.1108758 -14.15698242 1.9909668 C-11 0 -11 0 0 0 Z " fill="#BEB0A2" transform="translate(88,32)"/>
<path d="M0 0 C5.28 0 10.56 0 16 0 C16 13.2 16 26.4 16 40 C5 40 5 40 1 37 C-0.21077701 33.36766898 -0.12444164 30.04878013 -0.09765625 26.26953125 C-0.0962413 25.51911057 -0.09482635 24.76868988 -0.09336853 23.99552917 C-0.0877756 21.6011454 -0.07522444 19.20685547 -0.0625 16.8125 C-0.05748408 15.18815239 -0.05292134 13.56380332 -0.04882812 11.93945312 C-0.0386598 7.95957025 -0.01908312 3.97989007 0 0 Z " fill="#BEB0A2" transform="translate(72,440)"/>
<path d="M0 0 C5.28 0 10.56 0 16 0 C16 10.56 16 21.12 16 32 C10.72 32 5.44 32 0 32 C0 21.44 0 10.88 0 0 Z " fill="#BFB1A3" transform="translate(72,360)"/>
<path d="M0 0 C5.28 0 10.56 0 16 0 C16 10.56 16 21.12 16 32 C10.72 32 5.44 32 0 32 C0 21.44 0 10.88 0 0 Z " fill="#BFB1A3" transform="translate(72,280)"/>
<path d="M0 0 C5.28 0 10.56 0 16 0 C16 10.56 16 21.12 16 32 C10.72 32 5.44 32 0 32 C0 21.44 0 10.88 0 0 Z " fill="#BFB1A3" transform="translate(72,200)"/>
<path d="M0 0 C5.28 0 10.56 0 16 0 C16 10.56 16 21.12 16 32 C10.72 32 5.44 32 0 32 C0 21.44 0 10.88 0 0 Z " fill="#BFB1A3" transform="translate(72,120)"/>
</svg>
